<mxfile host="65bd71144e">
    <diagram id="3P9DwB53Ec_SRerw1W_u" name="Page-1">
        <mxGraphModel dx="660" dy="371" grid="1" gridSize="10" guides="1" tooltips="1" connect="1" arrows="1" fold="1" page="1" pageScale="1" pageWidth="1169" pageHeight="827" math="0" shadow="0">
            <root>
                <mxCell id="0"/>
                <mxCell id="1" parent="0"/>
                <mxCell id="3" value="Toolbar" style="rounded=0;whiteSpace=wrap;html=1;" vertex="1" parent="1">
                    <mxGeometry x="40" y="160" width="240" height="550" as="geometry"/>
                </mxCell>
                <mxCell id="4" value="Navigation" style="rounded=0;whiteSpace=wrap;html=1;" vertex="1" parent="1">
                    <mxGeometry x="40" y="100" width="1080" height="60" as="geometry"/>
                </mxCell>
                <mxCell id="5" value="" style="rounded=0;whiteSpace=wrap;html=1;" vertex="1" parent="1">
                    <mxGeometry x="280" y="160" width="840" height="550" as="geometry"/>
                </mxCell>
                <mxCell id="2" value="" style="rounded=1;whiteSpace=wrap;html=1;arcSize=2;fillStyle=hatch;gradientColor=none;fillColor=#FFFFFF;" vertex="1" parent="1">
                    <mxGeometry x="300" y="180" width="70" height="70" as="geometry"/>
                </mxCell>
                <mxCell id="6" value="&lt;font style=&quot;font-size: 8px;&quot;&gt;PROJECT_KEY / ISSUE_ID&lt;/font&gt;" style="rounded=0;whiteSpace=wrap;html=1;fillStyle=auto;fillColor=none;gradientColor=none;strokeColor=none;align=left;" vertex="1" parent="1">
                    <mxGeometry x="384" y="180" width="110" height="30" as="geometry"/>
                </mxCell>
                <mxCell id="8" value="&lt;font style=&quot;font-size: 18px;&quot;&gt;ISSUE_NAME&lt;/font&gt;" style="rounded=0;whiteSpace=wrap;html=1;fillStyle=auto;fillColor=none;gradientColor=none;align=left;strokeColor=none;fontSize=18;" vertex="1" parent="1">
                    <mxGeometry x="384" y="220" width="150" height="30" as="geometry"/>
                </mxCell>
                <mxCell id="9" value="&lt;font style=&quot;font-size: 12px;&quot;&gt;Edit&lt;/font&gt;" style="rounded=1;whiteSpace=wrap;html=1;fillStyle=auto;fontSize=18;fillColor=none;gradientColor=none;" vertex="1" parent="1">
                    <mxGeometry x="300" y="270" width="60" height="30" as="geometry"/>
                </mxCell>
                <mxCell id="10" value="&lt;font style=&quot;font-size: 12px;&quot;&gt;Comment&lt;/font&gt;" style="rounded=1;whiteSpace=wrap;html=1;fillStyle=auto;fontSize=18;fillColor=none;gradientColor=none;" vertex="1" parent="1">
                    <mxGeometry x="370" y="270" width="80" height="30" as="geometry"/>
                </mxCell>
                <mxCell id="11" value="&lt;font style=&quot;font-size: 12px;&quot;&gt;Assign&lt;/font&gt;" style="rounded=1;whiteSpace=wrap;html=1;fillStyle=auto;fontSize=18;fillColor=none;gradientColor=none;" vertex="1" parent="1">
                    <mxGeometry x="460" y="270" width="60" height="30" as="geometry"/>
                </mxCell>
                <mxCell id="12" value="" style="rounded=0;whiteSpace=wrap;html=1;fillStyle=auto;fontSize=12;fillColor=none;gradientColor=none;" vertex="1" parent="1">
                    <mxGeometry x="300" y="330" width="520" height="360" as="geometry"/>
                </mxCell>
                <mxCell id="13" value="" style="rounded=0;whiteSpace=wrap;html=1;fillStyle=auto;fontSize=12;fillColor=none;gradientColor=none;" vertex="1" parent="1">
                    <mxGeometry x="300" y="330" width="520" height="90" as="geometry"/>
                </mxCell>
                <mxCell id="14" value="Details" style="text;html=1;align=left;verticalAlign=middle;resizable=0;points=[];autosize=1;strokeColor=none;fillColor=none;fontSize=9;" vertex="1" parent="1">
                    <mxGeometry x="310" y="335" width="50" height="20" as="geometry"/>
                </mxCell>
                <mxCell id="16" value="" style="rounded=0;whiteSpace=wrap;html=1;fillStyle=auto;fontSize=10;fillColor=none;gradientColor=none;" vertex="1" parent="1">
                    <mxGeometry x="820" y="330" width="280" height="360" as="geometry"/>
                </mxCell>
                <mxCell id="17" value="People" style="text;html=1;align=left;verticalAlign=middle;resizable=0;points=[];autosize=1;strokeColor=none;fillColor=none;fontSize=9;" vertex="1" parent="1">
                    <mxGeometry x="833" y="335" width="50" height="20" as="geometry"/>
                </mxCell>
                <mxCell id="18" value="Type:" style="text;html=1;align=left;verticalAlign=middle;resizable=0;points=[];autosize=1;strokeColor=none;fillColor=none;fontSize=9;" vertex="1" parent="1">
                    <mxGeometry x="310" y="365" width="50" height="20" as="geometry"/>
                </mxCell>
                <mxCell id="19" value="Priority:" style="text;html=1;align=left;verticalAlign=middle;resizable=0;points=[];autosize=1;strokeColor=none;fillColor=none;fontSize=9;" vertex="1" parent="1">
                    <mxGeometry x="310" y="385" width="50" height="20" as="geometry"/>
                </mxCell>
                <mxCell id="21" value="Status:" style="text;html=1;align=left;verticalAlign=middle;resizable=0;points=[];autosize=1;strokeColor=none;fillColor=none;fontSize=9;" vertex="1" parent="1">
                    <mxGeometry x="615" y="365" width="50" height="20" as="geometry"/>
                </mxCell>
                <mxCell id="22" value="Version:" style="text;html=1;align=left;verticalAlign=middle;resizable=0;points=[];autosize=1;strokeColor=none;fillColor=none;fontSize=9;" vertex="1" parent="1">
                    <mxGeometry x="615" y="385" width="60" height="20" as="geometry"/>
                </mxCell>
                <mxCell id="23" value="Modified by:" style="text;html=1;align=left;verticalAlign=middle;resizable=0;points=[];autosize=1;strokeColor=none;fillColor=none;fontSize=9;" vertex="1" parent="1">
                    <mxGeometry x="833" y="365" width="70" height="20" as="geometry"/>
                </mxCell>
                <mxCell id="24" value="Assignee:" style="text;html=1;align=left;verticalAlign=middle;resizable=0;points=[];autosize=1;strokeColor=none;fillColor=none;fontSize=9;" vertex="1" parent="1">
                    <mxGeometry x="833" y="385" width="60" height="20" as="geometry"/>
                </mxCell>
                <mxCell id="25" value="Reporter:" style="text;html=1;align=left;verticalAlign=middle;resizable=0;points=[];autosize=1;strokeColor=none;fillColor=none;fontSize=9;" vertex="1" parent="1">
                    <mxGeometry x="833" y="405" width="60" height="20" as="geometry"/>
                </mxCell>
                <mxCell id="26" value="Dates" style="text;html=1;align=left;verticalAlign=middle;resizable=0;points=[];autosize=1;strokeColor=none;fillColor=none;fontSize=9;" vertex="1" parent="1">
                    <mxGeometry x="833" y="440" width="50" height="20" as="geometry"/>
                </mxCell>
                <mxCell id="27" value="Created:" style="text;html=1;align=left;verticalAlign=middle;resizable=0;points=[];autosize=1;strokeColor=none;fillColor=none;fontSize=9;" vertex="1" parent="1">
                    <mxGeometry x="833" y="470" width="60" height="20" as="geometry"/>
                </mxCell>
                <mxCell id="28" value="Modified:" style="text;html=1;align=left;verticalAlign=middle;resizable=0;points=[];autosize=1;strokeColor=none;fillColor=none;fontSize=9;" vertex="1" parent="1">
                    <mxGeometry x="833" y="490" width="60" height="20" as="geometry"/>
                </mxCell>
                <mxCell id="29" value="Assigned:" style="text;html=1;align=left;verticalAlign=middle;resizable=0;points=[];autosize=1;strokeColor=none;fillColor=none;fontSize=9;" vertex="1" parent="1">
                    <mxGeometry x="833" y="510" width="60" height="20" as="geometry"/>
                </mxCell>
                <mxCell id="30" value="Closed:" style="text;html=1;align=left;verticalAlign=middle;resizable=0;points=[];autosize=1;strokeColor=none;fillColor=none;fontSize=9;" vertex="1" parent="1">
                    <mxGeometry x="833" y="530" width="50" height="20" as="geometry"/>
                </mxCell>
                <mxCell id="31" value="ISSUE_TYPE" style="text;html=1;align=right;verticalAlign=middle;resizable=0;points=[];autosize=1;strokeColor=none;fillColor=none;fontSize=9;" vertex="1" parent="1">
                    <mxGeometry x="440" y="365" width="80" height="20" as="geometry"/>
                </mxCell>
                <mxCell id="32" value="ISSUE_PRIORITY" style="text;html=1;align=right;verticalAlign=middle;resizable=0;points=[];autosize=1;strokeColor=none;fillColor=none;fontSize=9;" vertex="1" parent="1">
                    <mxGeometry x="420" y="385" width="100" height="20" as="geometry"/>
                </mxCell>
                <mxCell id="33" value="ISSUE_STATUS" style="text;html=1;align=right;verticalAlign=middle;resizable=0;points=[];autosize=1;strokeColor=none;fillColor=none;fontSize=9;" vertex="1" parent="1">
                    <mxGeometry x="715" y="365" width="90" height="20" as="geometry"/>
                </mxCell>
                <mxCell id="34" value="ISSUE_VERSION" style="text;html=1;align=right;verticalAlign=middle;resizable=0;points=[];autosize=1;strokeColor=none;fillColor=none;fontSize=9;" vertex="1" parent="1">
                    <mxGeometry x="705" y="385" width="100" height="20" as="geometry"/>
                </mxCell>
                <mxCell id="42" value="MODIFIER_NAME" style="text;html=1;align=right;verticalAlign=middle;resizable=0;points=[];autosize=1;strokeColor=none;fillColor=none;fontSize=9;" vertex="1" parent="1">
                    <mxGeometry x="990" y="365" width="100" height="20" as="geometry"/>
                </mxCell>
                <mxCell id="43" value="ASSIGNER_NAME" style="text;html=1;align=right;verticalAlign=middle;resizable=0;points=[];autosize=1;strokeColor=none;fillColor=none;fontSize=9;" vertex="1" parent="1">
                    <mxGeometry x="990" y="385" width="100" height="20" as="geometry"/>
                </mxCell>
                <mxCell id="45" value="REPORTER_NAME" style="text;html=1;align=right;verticalAlign=middle;resizable=0;points=[];autosize=1;strokeColor=none;fillColor=none;fontSize=9;" vertex="1" parent="1">
                    <mxGeometry x="990" y="405" width="100" height="20" as="geometry"/>
                </mxCell>
                <mxCell id="47" value="CREATION_DATE" style="text;html=1;align=right;verticalAlign=middle;resizable=0;points=[];autosize=1;strokeColor=none;fillColor=none;fontSize=9;" vertex="1" parent="1">
                    <mxGeometry x="990" y="470" width="100" height="20" as="geometry"/>
                </mxCell>
                <mxCell id="48" value="MODIFICATION_DATE" style="text;html=1;align=right;verticalAlign=middle;resizable=0;points=[];autosize=1;strokeColor=none;fillColor=none;fontSize=9;" vertex="1" parent="1">
                    <mxGeometry x="970" y="490" width="120" height="20" as="geometry"/>
                </mxCell>
                <mxCell id="49" value="ASSIGNATION_DATE" style="text;html=1;align=right;verticalAlign=middle;resizable=0;points=[];autosize=1;strokeColor=none;fillColor=none;fontSize=9;" vertex="1" parent="1">
                    <mxGeometry x="980" y="510" width="110" height="20" as="geometry"/>
                </mxCell>
                <mxCell id="50" value="CLOSING_DATE" style="text;html=1;align=right;verticalAlign=middle;resizable=0;points=[];autosize=1;strokeColor=none;fillColor=none;fontSize=9;" vertex="1" parent="1">
                    <mxGeometry x="1000" y="530" width="90" height="20" as="geometry"/>
                </mxCell>
                <mxCell id="51" value="" style="rounded=0;whiteSpace=wrap;html=1;fillStyle=auto;fontSize=9;fillColor=none;gradientColor=none;" vertex="1" parent="1">
                    <mxGeometry x="300" y="420" width="520" height="100" as="geometry"/>
                </mxCell>
                <mxCell id="52" value="" style="rounded=0;whiteSpace=wrap;html=1;fillStyle=auto;fontSize=9;fillColor=none;gradientColor=none;" vertex="1" parent="1">
                    <mxGeometry x="300" y="520" width="520" height="110" as="geometry"/>
                </mxCell>
                <mxCell id="53" value="" style="rounded=0;whiteSpace=wrap;html=1;fillStyle=auto;fontSize=9;fillColor=none;gradientColor=none;" vertex="1" parent="1">
                    <mxGeometry x="300" y="630" width="520" height="60" as="geometry"/>
                </mxCell>
                <mxCell id="54" value="Description" style="text;html=1;align=left;verticalAlign=middle;resizable=0;points=[];autosize=1;strokeColor=none;fillColor=none;fontSize=9;" vertex="1" parent="1">
                    <mxGeometry x="310" y="425" width="70" height="20" as="geometry"/>
                </mxCell>
                <mxCell id="55" value="ISSUE_DESCRIPTION" style="rounded=0;whiteSpace=wrap;html=1;fillStyle=hatch;fontSize=9;fillColor=#FFFFFF;gradientColor=none;" vertex="1" parent="1">
                    <mxGeometry x="310" y="450" width="500" height="60" as="geometry"/>
                </mxCell>
                <mxCell id="56" value="Attachments" style="text;html=1;align=left;verticalAlign=middle;resizable=0;points=[];autosize=1;strokeColor=none;fillColor=none;fontSize=9;" vertex="1" parent="1">
                    <mxGeometry x="310" y="525" width="70" height="20" as="geometry"/>
                </mxCell>
                <mxCell id="57" value="File" style="rounded=1;whiteSpace=wrap;html=1;fillStyle=hatch;fontSize=9;fillColor=none;gradientColor=none;" vertex="1" parent="1">
                    <mxGeometry x="310" y="549" width="30" height="30" as="geometry"/>
                </mxCell>
                <mxCell id="58" value="File" style="rounded=1;whiteSpace=wrap;html=1;fillStyle=hatch;fontSize=9;fillColor=none;gradientColor=none;" vertex="1" parent="1">
                    <mxGeometry x="354" y="549" width="30" height="30" as="geometry"/>
                </mxCell>
                <mxCell id="59" value="File" style="rounded=1;whiteSpace=wrap;html=1;fillStyle=hatch;fontSize=9;fillColor=none;gradientColor=none;" vertex="1" parent="1">
                    <mxGeometry x="395" y="549" width="30" height="30" as="geometry"/>
                </mxCell>
                <mxCell id="60" value="File Uploading" style="rounded=1;whiteSpace=wrap;html=1;fillStyle=hatch;fontSize=9;fillColor=none;gradientColor=none;" vertex="1" parent="1">
                    <mxGeometry x="310" y="590" width="500" height="30" as="geometry"/>
                </mxCell>
                <mxCell id="61" value="Activity" style="text;html=1;align=left;verticalAlign=middle;resizable=0;points=[];autosize=1;strokeColor=none;fillColor=none;fontSize=9;" vertex="1" parent="1">
                    <mxGeometry x="310" y="635" width="50" height="20" as="geometry"/>
                </mxCell>
                <mxCell id="62" value="&lt;font style=&quot;font-size: 12px;&quot;&gt;Comment&lt;/font&gt;" style="rounded=1;whiteSpace=wrap;html=1;fillStyle=auto;fontSize=18;fillColor=none;gradientColor=none;" vertex="1" parent="1">
                    <mxGeometry x="310" y="655" width="80" height="30" as="geometry"/>
                </mxCell>
                <mxCell id="63" value="" style="html=1;verticalLabelPosition=bottom;labelBackgroundColor=#ffffff;verticalAlign=top;shadow=0;dashed=0;strokeWidth=1;shape=mxgraph.ios7.misc.down;rounded=1;glass=0;sketch=0;fontSize=8;fillColor=none;strokeColor=#FFFFFF;" vertex="1" parent="1">
                    <mxGeometry x="793" y="342" width="12" height="6" as="geometry"/>
                </mxCell>
                <mxCell id="64" value="" style="html=1;verticalLabelPosition=bottom;labelBackgroundColor=#ffffff;verticalAlign=top;shadow=0;dashed=0;strokeWidth=1;shape=mxgraph.ios7.misc.down;rounded=1;glass=0;sketch=0;fontSize=8;fillColor=none;strokeColor=#FFFFFF;" vertex="1" parent="1">
                    <mxGeometry x="1078" y="342" width="12" height="6" as="geometry"/>
                </mxCell>
                <mxCell id="65" value="" style="html=1;verticalLabelPosition=bottom;labelBackgroundColor=#ffffff;verticalAlign=top;shadow=0;dashed=0;strokeWidth=1;shape=mxgraph.ios7.misc.down;rounded=1;glass=0;sketch=0;fontSize=8;fillColor=none;strokeColor=#FFFFFF;" vertex="1" parent="1">
                    <mxGeometry x="1078" y="450" width="12" height="6" as="geometry"/>
                </mxCell>
                <mxCell id="66" value="" style="html=1;verticalLabelPosition=bottom;labelBackgroundColor=#ffffff;verticalAlign=top;shadow=0;dashed=0;strokeWidth=1;shape=mxgraph.ios7.misc.down;rounded=1;glass=0;sketch=0;fontSize=8;fillColor=none;strokeColor=#FFFFFF;" vertex="1" parent="1">
                    <mxGeometry x="793" y="532" width="12" height="6" as="geometry"/>
                </mxCell>
                <mxCell id="67" value="" style="html=1;verticalLabelPosition=bottom;labelBackgroundColor=#ffffff;verticalAlign=top;shadow=0;dashed=0;strokeWidth=1;shape=mxgraph.ios7.misc.down;rounded=1;glass=0;sketch=0;fontSize=8;fillColor=none;strokeColor=#FFFFFF;" vertex="1" parent="1">
                    <mxGeometry x="798" y="642" width="12" height="6" as="geometry"/>
                </mxCell>
            </root>
        </mxGraphModel>
    </diagram>
</mxfile>